<svg width="28" height="31" fill="none" xmlns="http://www.w3.org/2000/svg"><path fill-rule="evenodd" clip-rule="evenodd" d="M10.742 11.575l-6.59 3.78v12.843l4.289 2.45 3.755-2.17c.319.21.744.21 1.098.033.532-.315.744-.98.425-1.505a1.146 1.146 0 00-.676-.51 1.16 1.16 0 00-.847.09c-.354.21-.567.595-.531.98L8.44 29.387l-2.657-1.505 6.058-3.464 1.063.63 1.594.91 1.063.595 10.699-6.09c.319.21.744.21 1.134 0 .531-.28.708-.944.39-1.47a1.16 1.16 0 00-1.524-.42c-.354.21-.532.596-.532.98l-8.29 4.69-1.879 1.085-2.373-1.365-4.393-2.52V18.61l6.59 3.78.708-.386 10.734-6.124v-.42l-.177-4.2-3.756-2.134c0-.21-.07-.384-.141-.56a1.112 1.112 0 00-.47-.443 1.13 1.13 0 00-1.233.148 1.103 1.103 0 00-.334 1.183c.069.207.199.39.373.525a1.126 1.126 0 001.239.092v-.033l3.259 1.855.106 2.94-6.2-3.534V7.2L8.83 1.112c0-.21-.071-.385-.177-.56-.284-.525-.957-.7-1.488-.42a1.107 1.107 0 00-.528.666c-.08.282-.043.584.103.84a1.13 1.13 0 001.523.419v-.033l6.66 3.814L18.43 7.83v7.524l-2.303 1.33V9.125l-3.508-1.994-6.66-3.78-1.098-.63-4.286 2.45V9.44l-.033.033c-.496.28-.709.945-.39 1.47.15.25.393.433.677.511.283.078.587.046.846-.09a1.101 1.101 0 00.513-.673 1.079 1.079 0 00-.123-.833 1.214 1.214 0 00-.425-.42V5.8l2.515-1.433v6.894l-.78.455-1.735.98-1.063.63v12.178H.542c-.496.315-.708.98-.39 1.505a1.097 1.097 0 00.681.507 1.119 1.119 0 00.843-.122c.531-.28.709-.945.39-1.47a1.213 1.213 0 00-.425-.42V13.92l6.625-3.745 2.476 1.4zm-5.527 4.41l6.058-3.465v2.833l-3.577 2.03v4.69l3.047 1.715-5.527 3.15V15.984zm9.814.874l-2.658-1.505v-4.06L8.262 8.916l-3.047 1.75v-6.51l9.814 5.601v7.103zm-5.704.84l2.515-1.434 3.543 2.065 4.11-2.345V12.52l5.702 3.22-9.812 5.423L9.325 17.7z" fill="#fff"/></svg>